<?xml version="1.0" standalone="no"?>
<!DOCTYPE svg PUBLIC "-//W3C//DTD SVG 20010904//EN"
 "http://www.w3.org/TR/2001/REC-SVG-20010904/DTD/svg10.dtd">
<svg version="1.0" xmlns="http://www.w3.org/2000/svg"
 width="512.000000pt" height="512.000000pt" viewBox="0 0 512.000000 512.000000"
 preserveAspectRatio="xMidYMid meet">
<metadata>
Created by potrace 1.14, written by Peter Selinger 2001-2017
</metadata>
<g transform="translate(0.000000,512.000000) scale(0.100000,-0.100000)"
fill="#000000" stroke="none">
<path d="M2275 5055 c-158 -21 -187 -25 -230 -37 -22 -5 -51 -12 -65 -15 -75
-13 -186 -47 -340 -105 -121 -45 -335 -156 -472 -245 -234 -151 -510 -421
-668 -652 -25 -36 -48 -67 -52 -69 -5 -2 -8 -7 -8 -12 0 -4 -18 -38 -40 -75
-52 -84 -155 -293 -182 -365 -54 -149 -71 -204 -98 -310 -66 -263 -89 -545
-67 -823 21 -266 104 -594 202 -802 13 -27 33 -70 44 -95 24 -55 85 -163 111
-200 11 -16 20 -33 20 -39 0 -6 4 -11 8 -11 5 0 14 -12 21 -26 15 -33 151
-215 205 -274 211 -229 393 -379 639 -523 74 -43 261 -137 275 -137 4 0 19 -6
34 -14 86 -45 368 -125 534 -152 225 -36 571 -40 759 -9 55 9 113 18 130 20
151 22 426 115 625 212 661 321 1142 908 1335 1628 18 68 26 101 30 130 1 11
7 47 13 80 10 58 14 83 27 206 13 116 7 425 -10 534 -3 17 -7 47 -10 69 -3 21
-7 41 -9 45 -2 3 -7 31 -11 61 -4 30 -11 63 -16 73 -5 9 -8 17 -5 17 10 0 -72
264 -116 370 -74 181 -261 499 -355 607 -16 17 -44 50 -63 74 -39 48 -194 205
-255 259 -89 78 -251 200 -265 200 -6 0 -10 3 -10 8 0 4 -9 12 -19 17 -11 6
-68 38 -128 71 -102 59 -278 142 -333 159 -14 4 -29 11 -35 15 -5 4 -32 13
-60 20 -27 7 -54 16 -60 19 -5 3 -14 7 -20 8 -5 1 -28 7 -50 13 -70 18 -79 21
-105 26 -14 3 -32 7 -42 10 -19 6 -115 22 -173 30 -22 3 -53 7 -70 10 -69 13
-473 12 -570 -1z"/>
</g>
</svg>
